<svg xmlns="http://www.w3.org/2000/svg" viewBox="0 0 24 24" fill="currentColor">
  <path d="M12 .5C5.65.5.5 5.65.5 12a11.5 11.5 0 008 10.95c.6.1.82-.26.82-.58
  0-.29-.01-1.06-.02-2.08-3.25.71-3.94-1.57-3.94-1.57-.53-1.35-1.3-1.7-1.3-1.7
  -1.06-.73.08-.72.08-.72 1.17.08 1.79 1.2 1.79 1.2 1.04 1.77 2.73 1.26
  3.4.96.1-.75.4-1.26.73-1.55-2.6-.3-5.33-1.3-5.33-5.8
  0-1.28.46-2.33 1.2-3.15-.12-.3-.52-1.52.11-3.17
  0 0 .98-.31 3.2 1.2a11.1 11.1 0 015.82 0c2.22-1.51 3.2-1.2 3.2-1.2
  .63 1.65.23 2.87.11 3.17.75.82 1.2 1.87 1.2 3.15
  0 4.51-2.73 5.5-5.34 5.79.41.36.77 1.09.77 2.2
  0 1.59-.02 2.87-.02 3.26 0 .32.21.69.83.57A11.5 11.5 0 0023.5 12
  C23.5 5.65 18.35.5 12 .5z"></path>
</svg>